<svg width="181" height="62" viewBox="0 0 181 62" fill="none" xmlns="http://www.w3.org/2000/svg">
<path d="M20.5889 11.7885C20.5268 11.7885 20.485 11.7885 20.4431 11.7885C19.7518 11.7885 19.0604 11.786 18.369 11.7911C18.2653 11.7918 18.2213 11.7589 18.1807 11.6751C16.7376 8.71007 15.292 5.7464 13.8464 2.78227C13.8289 2.74632 13.8101 2.71084 13.7848 2.66121C12.9407 4.38876 12.1025 6.10356 11.2634 7.82044C11.3173 7.83691 11.3601 7.83041 11.4022 7.83041C12.3943 7.83087 13.3864 7.83203 14.3785 7.82856C14.4707 7.82832 14.5132 7.85314 14.5508 7.93153C14.8315 8.51921 15.1185 9.1041 15.4027 9.69039C15.4197 9.72541 15.449 9.75764 15.4427 9.80101C15.3999 9.81446 15.3568 9.80774 15.3143 9.80774C13.6931 9.8082 12.0722 9.8082 10.4511 9.8082C10.4238 9.8082 10.396 9.81098 10.3692 9.80774C10.3126 9.80101 10.2858 9.82606 10.264 9.87198C10.1784 10.054 10.0893 10.2345 10.0011 10.4156C9.79128 10.8467 9.58043 11.2774 9.37285 11.7092C9.3458 11.7656 9.31525 11.7906 9.24388 11.7904C8.51745 11.7878 7.79077 11.7888 7.06433 11.7885C7.0453 11.7885 7.02627 11.7862 7.00248 11.7846C6.99121 11.7391 7.02101 11.7069 7.03754 11.673C7.58243 10.5543 8.12782 9.43574 8.67346 8.31721C9.96857 5.66245 11.2642 3.00792 12.5565 0.352239C12.5968 0.269212 12.6457 0.245789 12.7401 0.246253C13.4355 0.249963 14.1306 0.250195 14.826 0.246021C14.9259 0.245325 14.9752 0.270372 15.0175 0.357341C16.2501 2.89173 17.4861 5.4245 18.7218 7.9575C19.3253 9.19455 19.9288 10.4314 20.532 11.6684C20.5481 11.7011 20.5631 11.7338 20.5889 11.7885Z" fill="#344054"/>
<path d="M21.0225 10.5675C21.0538 10.5369 21.0771 10.513 21.1017 10.4901C21.5379 10.0861 21.9743 9.68229 22.4106 9.27852C22.4298 9.26066 22.4494 9.24304 22.4689 9.22518C22.4894 9.20639 22.5095 9.20802 22.5303 9.22518C22.5505 9.24211 22.5711 9.25881 22.5919 9.27527C23.172 9.73122 23.8321 10.0364 24.5833 10.1593C25.0832 10.241 25.5855 10.2565 26.0815 10.1283C26.4038 10.0448 26.7093 9.92603 26.957 9.70988C27.3504 9.36642 27.4913 8.94572 27.3696 8.45869C27.3008 8.18317 27.1087 7.97607 26.8731 7.80631C26.5904 7.60245 26.2676 7.46284 25.9318 7.355C25.597 7.24762 25.2532 7.16436 24.9151 7.06603C24.4694 6.93639 24.0262 6.79724 23.592 6.63629C23.0241 6.42571 22.4934 6.15251 22.0041 5.81252C21.6551 5.56993 21.3483 5.28862 21.1074 4.94932C20.8014 4.51796 20.6467 4.04438 20.6447 3.5286C20.6427 3.0483 20.6965 2.57449 20.8908 2.1255C21.2975 1.186 22.0357 0.565622 23.0656 0.242793C23.736 0.0329084 24.4291 -0.0262305 25.1337 0.00994858C25.5787 0.0329084 26.0229 0.0683917 26.4536 0.177393C27.1333 0.349243 27.7863 0.584176 28.3868 0.931819C28.6094 1.06077 28.807 1.2194 29.0171 1.38707C28.513 1.85879 28.0119 2.32773 27.5054 2.802C27.4711 2.77324 27.4395 2.7482 27.4097 2.72152C26.9334 2.2941 26.3773 2.00374 25.7252 1.87549C25.0459 1.74191 24.38 1.77159 23.744 2.04293C23.3273 2.22058 23.0108 2.50097 22.8881 2.92445C22.7681 3.33889 22.8443 3.7183 23.172 4.0409C23.3428 4.20881 23.5419 4.33915 23.759 4.44931C24.069 4.60678 24.4018 4.70697 24.7409 4.79371C25.0827 4.88114 25.4262 4.96463 25.7638 5.06505C26.4574 5.27099 27.1142 5.55347 27.731 5.91317C28.052 6.10033 28.357 6.30766 28.6312 6.55187C29.0196 6.89789 29.3248 7.29308 29.4891 7.77431C29.5968 8.08971 29.6148 8.41231 29.597 8.73885C29.5717 9.20477 29.4686 9.65446 29.2585 10.0805C28.8591 10.8906 28.1872 11.424 27.2955 11.7334C26.8087 11.9022 26.3034 11.9827 25.7846 11.9964C24.9114 12.0193 24.053 11.9365 23.2251 11.6673C22.4854 11.4268 21.7898 11.1037 21.1585 10.6689C21.1272 10.6473 21.0967 10.6248 21.0659 10.6025C21.0536 10.5937 21.0423 10.5837 21.0225 10.5675Z" fill="#344054"/>
<path d="M41.9627 6.02899C41.9627 4.15324 41.9627 2.2775 41.9627 0.40175C41.9627 0.245206 41.9479 0.267933 42.1041 0.267701C42.7252 0.267006 43.3462 0.26747 43.9672 0.26747C43.9907 0.26747 44.0143 0.268629 44.0375 0.26747C44.0809 0.264687 44.1039 0.279065 44.1009 0.322434C44.0989 0.351192 44.1007 0.380181 44.1007 0.409171C44.1007 3.49553 44.1007 6.58211 44.1007 9.66847C44.1007 9.76293 44.1522 9.81017 44.2554 9.81017C45.7786 9.81017 47.3021 9.81017 48.8254 9.81017C48.8409 9.81017 48.8567 9.81017 48.8722 9.81017C49.0114 9.8111 48.9986 9.79765 48.9986 9.9259C48.9989 10.5078 48.9986 11.0897 48.9986 11.6715C48.9986 11.6896 48.9966 11.7079 48.9989 11.7258C49.0064 11.7808 48.9756 11.7961 48.923 11.7921C48.9037 11.7907 48.8839 11.7921 48.8644 11.7921C46.6067 11.7921 44.3491 11.7921 42.0914 11.7921C41.9459 11.7921 41.9619 11.8005 41.9619 11.6674C41.9619 9.78791 41.9627 7.90845 41.9627 6.02899Z" fill="#344054"/>
<path d="M40.5992 7.26224C40.3415 6.6145 39.9126 6.08341 39.3133 5.67106C39.2455 5.62444 39.2322 5.62978 39.2901 5.55533C39.3083 5.53191 39.3251 5.50756 39.3419 5.4832C39.8332 4.77354 40.0197 3.99847 39.9028 3.16496C39.8051 2.46735 39.4881 1.85741 38.9758 1.34093C38.2469 0.605754 37.3324 0.249297 36.2569 0.247905C34.4404 0.245586 32.6239 0.24721 30.8075 0.247442C30.6525 0.247442 30.672 0.234918 30.672 0.37662C30.6718 4.13553 30.672 7.89468 30.672 11.6536C30.672 11.6789 30.6735 11.7044 30.6718 11.7294C30.6688 11.7702 30.6865 11.79 30.7321 11.7879C30.7594 11.7865 30.7867 11.7879 30.8142 11.7879C31.4315 11.7879 32.0488 11.7881 32.6658 11.7879C32.8343 11.7879 32.8085 11.7992 32.8087 11.6548C32.8092 10.1403 32.809 8.62591 32.8092 7.11149C32.8092 7.00365 32.797 7.00644 32.9112 7.00644C34.337 7.00644 35.7628 7.00644 37.1886 7.0069C37.3299 7.0069 37.4701 7.02197 37.6038 7.06395C38.1865 7.24647 38.5496 7.61128 38.6483 8.17831C38.7169 8.57257 38.6375 8.94248 38.3658 9.26276C38.0661 9.61643 37.6749 9.80637 37.1836 9.80637C36.3165 9.80637 35.4493 9.80637 34.5821 9.80661C34.4732 9.80661 34.4887 9.79524 34.4479 9.8894C34.2824 10.2711 34.1179 10.6533 33.9526 11.0353C33.8469 11.2797 33.741 11.524 33.6338 11.7712C33.6759 11.7946 33.708 11.7874 33.7383 11.7874C34.8711 11.7879 36.0039 11.7883 37.1368 11.7874C37.4618 11.7872 37.7836 11.7575 38.0984 11.6772C39.5833 11.2992 40.63 10.1542 40.783 8.79962C40.8423 8.27526 40.7973 7.75994 40.5992 7.26224ZM36.6129 4.99966C36.5063 5.02123 36.3971 5.02934 36.2874 5.02934C35.1668 5.02888 34.0465 5.02911 32.9259 5.02934C32.9142 5.02934 32.9024 5.02818 32.8909 5.02934C32.8335 5.03537 32.8005 5.01867 32.809 4.95861C32.8115 4.94075 32.8092 4.92243 32.8092 4.90457C32.8092 4.05204 32.8092 3.19952 32.8092 2.34699C32.8092 2.22129 32.7907 2.22987 32.9332 2.22987C33.5149 2.22987 34.0966 2.22987 34.6783 2.22987C35.2249 2.22987 35.7713 2.22755 36.318 2.23057C36.8869 2.23381 37.3211 2.47454 37.598 2.92307C38.0936 3.72574 37.6561 4.78792 36.6129 4.99966Z" fill="#344054"/>
<path d="M6.624 16.4H9.984C15.008 16.4 18.784 17.184 21.312 18.752C23.84 20.32 25.104 22.656 25.104 25.76C25.104 28.864 23.84 31.2 21.312 32.768C18.784 34.336 15.008 35.12 9.984 35.12H8.544V50H6.624V16.4ZM8.544 17.024V34.496H9.504C18.592 34.496 23.136 31.6 23.136 25.808C23.136 22.832 21.984 20.624 19.68 19.184C17.408 17.744 14.016 17.024 9.504 17.024H8.544ZM30.2528 16.4H33.6128C38.6368 16.4 42.4128 17.168 44.9408 18.704C47.4688 20.24 48.7327 22.512 48.7327 25.52C48.7327 30.096 45.8368 32.96 40.0448 34.112L50.5087 50H48.5888L38.2688 34.352C36.8928 34.544 35.3408 34.64 33.6128 34.64H32.1727V50H30.2528V16.4ZM32.1727 17.024V34.016H33.1328C42.2208 34.016 46.7648 31.2 46.7648 25.568C46.7648 22.688 45.6128 20.544 43.3088 19.136C41.0368 17.728 37.6448 17.024 33.1328 17.024H32.1727ZM76.959 50H74.991L70.047 36.512H57.135L52.239 50H51.519L63.855 16.256H64.527L76.959 50ZM69.759 35.888L63.567 18.896L57.375 35.888H69.759ZM74.8665 16.4H76.8345L87.7785 47.456L98.6265 16.4H99.3465L87.4905 50.144H86.8185L74.8665 16.4ZM103.951 16.4H120.272V17.024H105.871V30.176H116.863V30.8H105.871V49.376H121.232V50H103.951V16.4ZM123.157 43.952C124.309 45.84 125.797 47.28 127.621 48.272C129.445 49.264 131.477 49.76 133.717 49.76C135.157 49.76 136.469 49.552 137.653 49.136C138.837 48.72 139.845 48.144 140.677 47.408C141.541 46.672 142.197 45.808 142.645 44.816C143.125 43.792 143.365 42.672 143.365 41.456C143.365 39.888 142.949 38.544 142.117 37.424C141.317 36.272 140.005 35.184 138.181 34.16C137.477 33.776 136.677 33.376 135.781 32.96C134.885 32.544 133.973 32.128 133.045 31.712C132.117 31.264 131.205 30.832 130.309 30.416C129.445 30 128.661 29.6 127.957 29.216C126.389 28.288 125.269 27.344 124.597 26.384C123.925 25.424 123.589 24.336 123.589 23.12C123.589 22.032 123.813 21.056 124.261 20.192C124.709 19.296 125.333 18.544 126.133 17.936C126.965 17.296 127.957 16.8 129.109 16.448C130.261 16.096 131.525 15.92 132.901 15.92C133.829 15.92 134.677 16 135.445 16.16C136.245 16.288 137.045 16.464 137.845 16.688C138.645 16.88 139.493 17.104 140.389 17.36C141.285 17.616 142.309 17.856 143.461 18.08L142.933 19.04C141.717 18.784 140.645 18.512 139.717 18.224C138.821 17.936 137.989 17.68 137.221 17.456C136.485 17.2 135.749 17.008 135.013 16.88C134.309 16.72 133.541 16.64 132.709 16.64C130.533 16.64 128.789 17.168 127.477 18.224C126.165 19.28 125.509 20.672 125.509 22.4C125.509 23.424 125.797 24.336 126.373 25.136C126.949 25.936 127.909 26.736 129.253 27.536C130.021 28.016 130.869 28.464 131.797 28.88C132.725 29.296 133.653 29.712 134.581 30.128C135.541 30.544 136.469 30.944 137.365 31.328C138.261 31.712 139.061 32.096 139.765 32.48C141.685 33.536 143.077 34.736 143.941 36.08C144.837 37.424 145.285 39.008 145.285 40.832C145.285 42.272 145.013 43.584 144.469 44.768C143.957 45.952 143.205 46.976 142.213 47.84C141.253 48.672 140.085 49.328 138.709 49.808C137.333 50.256 135.813 50.48 134.149 50.48C131.749 50.48 129.557 50 127.573 49.04C125.589 48.08 123.909 46.672 122.533 44.816L123.157 43.952ZM151.397 16.4H153.317V30.32H171.989V16.4H173.909V50H171.989V30.944H153.317V50H151.397V16.4Z" fill="black"/>
</svg>
